<svg width="46" height="32" viewBox="0 0 46 32" fill="none" xmlns="http://www.w3.org/2000/svg">
<path d="M39.1 9.6C39.1 8.28238 39.0984 7.43152 39.0452 6.78393C38.9942 6.16321 38.9073 5.93268 38.8493 5.81965C38.6566 5.44366 38.3632 5.12856 38.003 4.90893L37.844 4.82054C37.7303 4.76299 37.4983 4.67661 36.8737 4.6259C36.222 4.57301 35.3658 4.57143 34.04 4.57143H9.66C8.33415 4.57143 7.47797 4.57301 6.82633 4.6259C6.20177 4.67661 5.96978 4.76296 5.85602 4.82054C5.42327 5.03966 5.07116 5.38958 4.85067 5.81965C4.79273 5.9327 4.70584 6.16325 4.65481 6.78393C4.60159 7.43152 4.6 8.28238 4.6 9.6V22.4C4.6 23.7176 4.60159 24.5685 4.65481 25.2161C4.70584 25.8368 4.79276 26.0674 4.85067 26.1804L4.93961 26.3384C5.12898 26.6451 5.38856 26.903 5.697 27.0911L5.85602 27.1795L5.96743 27.2268C6.1098 27.2777 6.35751 27.336 6.82633 27.3741C7.47796 27.427 8.33414 27.4286 9.66 27.4286H34.04C35.3658 27.4286 36.222 27.427 36.8737 27.3741C37.4983 27.3234 37.7303 27.237 37.844 27.1795C38.2766 26.9604 38.629 26.6103 38.8493 26.1804C38.9072 26.0674 38.9942 25.8368 39.0452 25.2161C39.0984 24.5685 39.1 23.7176 39.1 22.4V9.6ZM10.35 20.5714V11.4286C10.35 10.1662 11.3797 9.14286 12.65 9.14286C13.9203 9.14286 14.95 10.1662 14.95 11.4286V20.5714C14.95 21.8338 13.9203 22.8571 12.65 22.8571C11.3797 22.8571 10.35 21.8338 10.35 20.5714ZM19.55 20.5714V11.4286C19.55 10.1662 20.5797 9.14286 21.85 9.14286C23.1203 9.14286 24.15 10.1662 24.15 11.4286V20.5714C24.15 21.8338 23.1203 22.8571 21.85 22.8571C20.5797 22.8571 19.55 21.8338 19.55 20.5714ZM28.75 20.5714V11.4286C28.75 10.1662 29.7797 9.14286 31.05 9.14286C32.3203 9.14286 33.35 10.1662 33.35 11.4286V20.5714C33.35 21.8338 32.3203 22.8571 31.05 22.8571C29.7797 22.8571 28.75 21.8338 28.75 20.5714ZM43.7 11.4286C44.9703 11.4286 46 12.4519 46 13.7143V18.2857C46 19.5481 44.9703 20.5714 43.7 20.5714V22.4C43.7 23.6422 43.702 24.7115 43.6299 25.5884C43.5556 26.492 43.3915 27.3914 42.948 28.2562C42.2866 29.5463 41.231 30.5954 39.9328 31.2527C39.0626 31.6934 38.1576 31.8565 37.2483 31.9303C36.3659 32.002 35.29 32 34.04 32H9.66C8.40996 32 7.33408 32.002 6.45168 31.9303C5.54238 31.8565 4.63744 31.6934 3.76715 31.2527C2.46898 30.5953 1.41333 29.546 0.751998 28.2562C0.308533 27.3914 0.144375 26.492 0.0700836 25.5884C-0.00199071 24.7115 5.52119e-06 23.6423 5.52119e-06 22.4V9.6C5.52119e-06 8.35772 -0.00199351 7.28852 0.0700836 6.41161C0.144377 5.50796 0.308561 4.60862 0.751998 3.74375C1.41348 2.45366 2.469 1.4047 3.76715 0.747327C4.63743 0.306643 5.54239 0.14348 6.45168 0.0696483C7.33408 -0.00198181 8.40996 5.49229e-06 9.66 5.49229e-06H34.04C35.29 5.49229e-06 36.3659 -0.00197827 37.2483 0.0696483C38.1576 0.143478 39.0626 0.306616 39.9328 0.747327C41.2307 1.40455 42.2856 2.45364 42.9471 3.74375C43.3906 4.60863 43.5556 5.50796 43.6299 6.41161C43.702 7.28853 43.7 8.35773 43.7 9.6V11.4286Z" fill="#13DE7F"/>
</svg>
