<svg width="29" height="23" viewBox="0 0 29 23" fill="none" xmlns="http://www.w3.org/2000/svg">
<path d="M0 13.8708C5.40813e-05 9.88532 2.78116 6.22919 6.97416 5.20532C8.56178 2.18106 11.7659 0 15.4997 0C20.3127 0.000107665 24.312 3.4914 24.9949 8.06067C27.4149 9.46619 29 12.1872 29 15.0893C29 19.4573 25.4304 23 21.025 23H9.28C4.16736 23 0 18.925 0 13.8708ZM2.9 13.8708C2.9 17.3124 5.74386 20.125 9.28 20.125H21.025C23.8269 20.125 26.1 17.8713 26.1 15.0893C26.1 12.9833 24.8097 11.0628 23.0539 10.3017C22.5536 10.0848 22.2186 9.60737 22.1873 9.06692C21.9877 5.62554 19.0797 2.87511 15.4997 2.875C12.7386 2.875 10.3316 4.62247 9.31172 7.02634C9.11789 7.48303 8.70001 7.80847 8.20666 7.88772C4.99547 8.40369 2.90006 11.0538 2.9 13.8708Z" fill="#092A1E"/>
</svg>
