<svg width="31" height="37" viewBox="0 0 31 37" fill="none" xmlns="http://www.w3.org/2000/svg">
<path d="M26.4608 4.45301C20.4267 -1.48434 10.6624 -1.48434 4.51858 4.45301C1.95925 6.97667 0.381574 10.3043 0.0607681 13.8555C-0.260038 17.4067 0.696387 20.956 2.7632 23.8843L10.1138 34.2477C10.7308 35.0989 11.5456 35.7928 12.4902 36.2715C13.4348 36.7502 14.482 37 15.5445 37C16.6071 37 17.6543 36.7502 18.5989 36.2715C19.5435 35.7928 20.3583 35.0989 20.9752 34.2477L28.3259 23.8843C30.3502 20.9341 31.2709 17.3839 30.9308 13.8399C30.5906 10.296 29.0107 6.97816 26.4608 4.45301ZM24.5957 21.4014L17.2451 31.7648C17.0344 32.0414 16.7611 32.2659 16.4469 32.4206C16.1327 32.5752 15.7862 32.6558 15.4348 32.6558C15.0835 32.6558 14.737 32.5752 14.4228 32.4206C14.1086 32.2659 13.8353 32.0414 13.6246 31.7648L6.27396 21.4014C4.78414 19.302 4.09888 16.7509 4.33992 14.2013C4.58096 11.6517 5.73268 9.2687 7.59049 7.47566C11.9789 3.15759 19.0004 3.15759 23.2792 7.47566C25.135 9.26983 26.2854 11.6526 26.5264 14.2016C26.7673 16.7506 26.0834 19.3012 24.5957 21.4014ZM15.4897 6.9359C13.9708 6.9359 12.486 7.37909 11.223 8.20942C9.9601 9.03975 8.97576 10.2199 8.3945 11.6007C7.81324 12.9815 7.66115 14.5009 7.95748 15.9667C8.2538 17.4326 8.98523 18.779 10.0593 19.8359C11.1333 20.8927 12.5017 21.6124 13.9914 21.9039C15.4812 22.1955 17.0253 22.0459 18.4286 21.4739C19.8319 20.902 21.0313 19.9334 21.8752 18.6908C22.7191 17.4481 23.1695 15.9871 23.1695 14.4925C23.1759 13.4984 22.9816 12.5129 22.5979 11.5933C22.2143 10.6736 21.6488 9.83808 20.9344 9.13512C20.22 8.43216 19.3708 7.87578 18.4362 7.49826C17.5015 7.12074 16.5 6.92959 15.4897 6.9359ZM15.4897 17.7311C14.8387 17.7311 14.2024 17.5411 13.6611 17.1853C13.1199 16.8294 12.698 16.3236 12.4489 15.7319C12.1998 15.1401 12.1346 14.4889 12.2616 13.8607C12.3886 13.2325 12.7021 12.6554 13.1624 12.2025C13.6227 11.7496 14.2091 11.4412 14.8476 11.3162C15.486 11.1912 16.1478 11.2554 16.7492 11.5005C17.3506 11.7456 17.8647 12.1607 18.2263 12.6933C18.588 13.2259 18.781 13.852 18.781 14.4925C18.7891 14.92 18.7094 15.3447 18.5469 15.7412C18.3843 16.1377 18.1422 16.4978 17.8349 16.8001C17.5277 17.1025 17.1616 17.3407 16.7587 17.5007C16.3557 17.6606 15.9241 17.739 15.4897 17.7311Z" fill="#1760FD"/>
</svg>
