<svg width="20" height="23" viewBox="0 0 20 23" fill="none" xmlns="http://www.w3.org/2000/svg">
<path d="M0.623002 13.1969C0.215487 13.9095 0 14.7233 0 15.5503C0 18.1486 2.09353 20.2624 4.66669 20.2624C7.23985 20.2624 9.33321 18.1486 9.33321 15.5503C9.33321 14.7233 9.11789 13.9095 8.71038 13.1969L4.66669 6.59667C4.65383 6.6179 4.94926 6.1357 0.623002 13.1969ZM7.99997 15.5503C7.99997 17.4062 6.50476 18.9161 4.66669 18.9161C2.82862 18.9161 1.33341 17.4062 1.33341 15.5503C1.33341 14.9627 1.4853 14.3848 1.7729 13.8784L4.66669 9.15564L7.56048 13.8784C7.84808 14.3848 7.99997 14.9627 7.99997 15.5503ZM19.377 15.8894L15.3333 9.28935C15.3203 9.31041 15.6157 8.82838 11.2896 15.8894C10.8821 16.6021 10.6666 17.416 10.6666 18.243C10.6666 20.866 12.7601 23 15.3333 23C17.9065 23 20 20.866 20 18.243C20 17.416 19.7845 16.6023 19.377 15.8894ZM15.3333 21.6537C13.4952 21.6537 12 20.1236 12 18.243C12 17.6553 12.1519 17.0773 12.4395 16.5711L15.3333 11.8481L18.2271 16.5711C18.5147 17.0773 18.6666 17.6553 18.6666 18.243C18.6666 20.1236 17.1712 21.6537 15.3333 21.6537ZM11.3334 0C11.2978 0.0596619 11.5466 -0.357971 8.44449 4.84963C8.15376 5.35711 7.99997 5.93811 7.99997 6.52982C7.99997 8.38565 9.49534 9.89562 11.3332 9.89562C13.1713 9.89562 14.6667 8.38565 14.6667 6.52982C14.6667 5.93776 14.5127 5.35641 14.2213 4.84858L11.3334 0ZM11.3332 8.54937C10.2306 8.54937 9.33338 7.64339 9.33338 6.52982C9.33338 6.17623 9.42409 5.83002 9.59596 5.52837L11.3332 2.61196L13.0702 5.52785C13.2424 5.82984 13.3333 6.17623 13.3333 6.52982C13.3333 7.64339 12.436 8.54937 11.3332 8.54937Z" fill="black"/>
</svg>
