<svg width="25" height="23" viewBox="0 0 25 23" fill="none" xmlns="http://www.w3.org/2000/svg">
<path d="M18.6875 19.9824L18.7285 20.0552C18.913 20.4264 18.7832 20.8998 18.4053 21.1012C16.6465 22.0401 14.6357 22.5795 12.499 22.5795V20.6161C13.8346 20.6161 15.111 20.364 16.2871 19.9085L13.8184 15.998C13.3964 16.0934 12.9552 16.1466 12.499 16.1466C12.0412 16.1466 11.5999 16.0936 11.1787 15.998L8.70996 19.9085C9.8863 20.3642 11.1631 20.6161 12.499 20.6161V22.5795L12.0996 22.5728C10.1118 22.51 8.24155 21.9814 6.59277 21.1012C6.18963 20.8864 6.06872 20.367 6.31055 19.9824L10.3623 13.5638C10.9872 13.9484 11.7129 14.1832 12.499 14.1832C13.2851 14.1832 14.0159 13.9484 14.6357 13.5638L18.6875 19.9824ZM12.918 10.1815C12.9177 9.92477 12.7119 9.74821 12.499 9.74821C12.2862 9.74821 12.0803 9.92477 12.0801 10.1815C12.0801 10.4386 12.286 10.6158 12.499 10.6158C12.712 10.6158 12.918 10.4386 12.918 10.1815ZM5.16602 0.146799C5.53889 -0.122886 6.06859 0.00200693 6.31055 0.386475L10.3623 6.8002C9.22346 7.50941 8.45719 8.75317 8.45703 10.1815H0.817383L0.732422 10.1777C0.339727 10.1369 0.0179094 9.81635 0 9.43088L0.000976562 9.34747C0.258103 5.56147 2.2381 2.24462 5.16602 0.146799ZM18.6875 0.381681C18.9294 -0.0029001 19.4591 -0.122719 19.832 0.142005C22.7599 2.23986 24.74 5.55663 24.9971 9.34268C25.0273 9.79722 24.6393 10.1815 24.1807 10.1815H16.541C16.5409 8.75317 15.7746 7.50961 14.6357 6.79541L18.6875 0.381681ZM17.2021 6.45698C17.6284 6.97837 17.9694 7.57142 18.2002 8.21812H22.8379C22.4102 6.00231 21.272 4.03641 19.667 2.55602L17.2021 6.45698ZM5.3291 2.56081C3.72582 4.03999 2.58945 6.00478 2.16113 8.21812H6.79785C7.02812 7.57313 7.36763 6.98099 7.79297 6.46082L5.3291 2.56081ZM14.918 10.1815C14.918 11.5052 13.8345 12.5793 12.499 12.5793C11.247 12.5793 10.2167 11.6356 10.0928 10.427L10.0801 10.1815C10.0803 8.85808 11.1637 7.78479 12.499 7.78479C13.8344 7.78479 14.9177 8.85808 14.918 10.1815Z" fill="#321B01"/>
</svg>
