<svg width="11" height="23" viewBox="0 0 11 23" fill="none" xmlns="http://www.w3.org/2000/svg">
<path d="M4.18168 8.36357C4.18168 7.78619 4.64973 7.31812 5.22714 7.31812C5.80454 7.31812 6.27259 7.78619 6.27259 8.36357V15.9615C6.89757 16.323 7.31805 16.9987 7.31805 17.7727C7.31805 18.9275 6.38195 19.8636 5.22714 19.8636C4.07233 19.8636 3.13623 18.9275 3.13623 17.7727C3.13623 16.9987 3.55671 16.323 4.18168 15.9615V8.36357Z" fill="#1A1A1A"/>
<path fill-rule="evenodd" clip-rule="evenodd" d="M1.04545 14.6364V4.18182C1.04545 3.96052 1.07237 3.73776 1.10868 3.51989C1.1691 3.15739 1.29189 2.65807 1.54787 2.1461C1.8059 1.63003 2.20937 1.08216 2.83415 0.665641C3.46547 0.244762 4.26022 0 5.22727 0C6.19431 0 6.98907 0.244762 7.62042 0.665641C8.24518 1.08216 8.64862 1.63003 8.90664 2.1461C9.16267 2.65807 9.28541 3.15739 9.34584 3.51989C9.38211 3.73748 9.40867 3.95975 9.40909 4.18076V14.6364C9.70401 15.0297 9.94394 15.465 10.1193 15.9309C10.5181 16.9901 10.5623 18.15 10.2455 19.2365C9.92857 20.3229 9.26764 21.2772 8.36196 21.9559C7.45628 22.6345 6.3549 23.0009 5.22309 23C4.09138 22.9992 2.99055 22.631 2.08597 21.9509C1.1814 21.2708 0.521983 20.3155 0.206799 19.2285C-0.108374 18.1416 -0.06228 16.9817 0.33815 15.9232C0.513326 15.4602 0.75216 15.0274 1.04545 14.6364ZM3.13636 14.6364V4.18821C3.14671 3.80981 3.24958 3.41807 3.41801 3.08117C3.55203 2.81315 3.73666 2.57693 3.99395 2.40538C4.24475 2.23819 4.62613 2.09091 5.22727 2.09091C5.82841 2.09091 6.20979 2.23819 6.46059 2.40538C6.71788 2.57693 6.90251 2.81315 7.03653 3.08117C7.20433 3.41678 7.30542 3.80513 7.31797 4.18142L7.31818 14.6364C7.31818 15.0618 7.42032 15.446 7.69266 15.7835C7.90321 16.0445 8.07226 16.3388 8.19197 16.6566C8.43357 17.2984 8.46044 18.0014 8.26839 18.6598C8.07634 19.3182 7.67583 19.8966 7.12696 20.3078C6.5781 20.7191 5.91058 20.9412 5.22476 20.9406C4.53894 20.94 3.87173 20.7169 3.3236 20.3048C2.7754 19.8926 2.37577 19.3137 2.18477 18.655C1.99376 17.9962 2.0217 17.2934 2.26437 16.6519C2.38452 16.3343 2.55412 16.0402 2.76503 15.7797C3.04028 15.4396 3.13636 15.0643 3.13636 14.6364Z" fill="#1A1A1A"/>
</svg>
