<svg width="46" height="37" viewBox="0 0 46 37" fill="none" xmlns="http://www.w3.org/2000/svg">
<path d="M18.3487 32.375C18.3488 29.8208 20.4615 27.75 23.0677 27.75C25.6737 27.7502 27.7865 29.8209 27.7867 32.375C27.7867 34.9292 25.6737 36.9998 23.0677 37C20.4614 37 18.3487 34.9294 18.3487 32.375ZM23.0179 18.5C24.9518 18.4933 26.8672 18.8752 28.6448 19.6219C30.4217 20.3685 32.0247 21.464 33.3536 22.8414C34.2489 23.7692 34.2071 25.233 33.2605 26.1105C32.3137 26.988 30.8203 26.9472 29.925 26.0192C29.0394 25.1014 27.9702 24.3709 26.7848 23.8729C25.5999 23.3752 24.3235 23.1206 23.0345 23.125C21.9056 23.1289 20.7878 23.3312 19.7349 23.7203L19.2879 23.8982C18.1063 24.4043 17.0426 25.142 16.1634 26.0662C15.2747 27.0001 13.7818 27.0517 12.8287 26.1809C11.8756 25.31 11.8239 23.8459 12.7126 22.9118C14.0316 21.5255 15.6264 20.4187 17.3984 19.6599L17.733 19.5217C19.4109 18.8531 21.2056 18.5062 23.0179 18.5ZM22.993 9.25C25.8943 9.24009 28.7658 9.81294 31.4319 10.9329C34.0979 12.0529 36.5029 13.6968 38.4966 15.7629C39.392 16.6909 39.3503 18.1545 38.4035 19.0321C37.4567 19.9096 35.9633 19.8687 35.0679 18.9408C33.5177 17.3342 31.6471 16.0553 29.5729 15.1839C27.4988 14.3127 25.2657 13.8673 23.0096 13.875C20.7534 13.8827 18.5231 14.3438 16.4555 15.2291C14.3878 16.1146 12.5268 17.4049 10.9881 19.0221C10.0995 19.9561 8.60655 20.0078 7.6535 19.1368C6.70045 18.2658 6.64865 16.8018 7.53737 15.8677C9.51585 13.7884 11.9081 12.129 14.5661 10.9907L15.0675 10.7838C17.5836 9.78088 20.2738 9.25933 22.993 9.25ZM23.7433 0.00722656C27.6662 0.092275 31.5409 0.91498 35.1518 2.43174C39.0035 4.04973 42.476 6.42541 45.3548 9.40898C46.2502 10.3369 46.2085 11.8006 45.2617 12.6781C44.3149 13.5552 42.8214 13.5146 41.9262 12.5869C39.4897 10.0618 36.5513 8.05159 33.2928 6.68276C30.0339 5.31384 26.5205 4.61289 22.9746 4.625C19.4295 4.63714 15.9253 5.36181 12.6757 6.75322C9.42672 8.14444 6.50283 10.1737 4.08475 12.7151C3.196 13.649 1.70308 13.6999 0.750115 12.829C-0.202827 11.9579 -0.254708 10.4948 0.633983 9.56074C3.49177 6.55722 6.94738 4.159 10.7872 2.51484C14.6265 0.870983 18.7674 0.0143559 22.958 0L23.7433 0.00722656Z" fill="#1760FD"/>
</svg>
